<svg xmlns="http://www.w3.org/2000/svg" 
    height="256px" width="256px"
    viewBox="0 0 256 256"
    fill="#5643"
    stroke="#777"
>
<g name="cities">
    <path d="m -5 0 h10 M0 -5 v10" />
    <g name="Rome" transform="matrix(1,0,0,1, 50, 190)">
        <circle cx="40" cy="-10" r="22" />
        <rect x="0" y="30" width="130" height="10" />
        <path d="m -5 0 h10 M0 -5 v10" />
    </g>
    <g name="Paris" transform="matrix(1,0,0,1, 0, 70)">
        <path d="m -5 0 h10 M0 -5 v10" />
        <g name="Centrale" transform="matrix(1,0,0,1, -20, 30)">
            <circle cx="0" cy="0" r="10" />
            <circle cx="40" cy="40" r="10" />
            <circle cx="20" cy="70" r="10" />
            <circle cx="60" cy="-10" r="40" />
            <path d="m -5 0 h10 M0 -5 v10" />
        </g>
        <g name="Notredame" transform="matrix(1,0,0,1, 175, 92)">
            <circle cx="40" cy="-20" r="14" />
            <circle cx="20" cy="-10" r="20" />
            <rect x="16" y="10" width="10" height="50" />
            <path d="m -5 0 h10 M0 -5 v10" />
            <g name="South" transform="matrix(1,0,0,1, 24, 56)">
                <circle cx="-20" cy="2" r="4" />
                <circle cx="20" cy="3" r="4" />
                <path d="m -5 0 h10 M0 -5 v10" />
            </g>
        </g>
    </g>
    <path name="original viewbox" d="m 0 0 h256 v256 h-256 z" fill="none"/>
</g>
</svg>