<?xml version="1.0" encoding="UTF-8"?><svg xmlns="http://www.w3.org/2000/svg" xmlns:xlink="http://www.w3.org/1999/xlink" fill-opacity="1" color-rendering="auto" color-interpolation="auto" text-rendering="auto" stroke="black" stroke-linecap="square" width="946" stroke-miterlimit="10" shape-rendering="auto" stroke-opacity="1" fill="black" stroke-dasharray="none" font-weight="normal" stroke-width="1" height="379" font-family="'Dialog'" font-style="normal" stroke-linejoin="miter" font-size="12px" stroke-dashoffset="0" image-rendering="auto">
  <!--Generated by ySVG 2.6-->
  <defs id="genericDefs"/>
  <g>
    <defs id="defs1">
      <clipPath clipPathUnits="userSpaceOnUse" id="clipPath1">
        <path d="M0 0 L946 0 L946 379 L0 379 L0 0 Z"/>
      </clipPath>
      <clipPath clipPathUnits="userSpaceOnUse" id="clipPath2">
        <path d="M190 222 L1136 222 L1136 601 L190 601 L190 222 Z"/>
      </clipPath>
    </defs>
    <g fill="rgb(229,229,229)" text-rendering="geometricPrecision" shape-rendering="geometricPrecision" transform="matrix(1,0,0,1,-190,-222)" stroke="rgb(229,229,229)">
      <rect x="921.62" y="492.7529" clip-path="url(#clipPath2)" width="198.76" rx="4" ry="4" height="71.3765" stroke="none"/>
    </g>
    <g fill="rgb(235,235,235)" text-rendering="geometricPrecision" shape-rendering="geometricPrecision" transform="matrix(1,0,0,1,-190,-222)" stroke="rgb(235,235,235)">
      <rect x="921.62" width="175.5625" height="22.3765" y="492.7529" clip-path="url(#clipPath2)" stroke="none"/>
    </g>
    <g font-size="15px" stroke-linecap="butt" transform="matrix(1,0,0,1,-190,-222)" text-rendering="geometricPrecision" font-family="sans-serif" shape-rendering="geometricPrecision" stroke-miterlimit="1.45">
      <text x="923.62" xml:space="preserve" y="509.8335" clip-path="url(#clipPath2)" stroke="none">TreeItem: { type: "folder" }</text>
      <rect x="936.62" y="530.1294" clip-path="url(#clipPath2)" fill="none" width="168.76" rx="4" ry="4" height="19"/>
      <text x="979.3779" xml:space="preserve" font-size="12px" y="544.3433" clip-path="url(#clipPath2)" stroke="none">Label: "Europe"</text>
      <rect x="544.43" y="248.8118" clip-path="url(#clipPath2)" fill="none" width="255.76" rx="4" ry="4" height="30"/>
      <text x="632.9584" xml:space="preserve" font-size="12px" y="268.5256" clip-path="url(#clipPath2)" stroke="none">PropertyGroup</text>
      <rect x="586.86" y="438.2529" clip-path="url(#clipPath2)" fill="none" width="218.76" rx="4" ry="4" height="30"/>
      <text x="656.8884" xml:space="preserve" font-size="12px" y="457.9668" clip-path="url(#clipPath2)" stroke="none">PropertyGroup</text>
    </g>
    <g stroke-linecap="butt" transform="matrix(1,0,0,1,-190,-222)" fill="rgb(255,102,0)" text-rendering="geometricPrecision" shape-rendering="geometricPrecision" stroke="rgb(255,102,0)" stroke-width="2" stroke-miterlimit="1.45">
      <path fill="none" d="M631.678 280.5267 L535.248 320.1956 L531.202 322.485 L528.312 325.5489 L526.578 329.3872 L526 334 L526 443.2529 L526.625 447.6279 L528.5 450.7529 L531.625 452.6279 L536 453.2529 L570.014 453.2529" clip-path="url(#clipPath2)"/>
    </g>
    <g stroke-linecap="butt" transform="matrix(1,0,0,1,-190,-222)" fill-opacity="0" fill="rgb(0,0,0)" text-rendering="geometricPrecision" shape-rendering="geometricPrecision" stroke="rgb(0,0,0)" stroke-width="2" stroke-opacity="0" stroke-miterlimit="1.45">
      <path d="M640.0013 277.1027 C640.9468 279.4011 639.85 282.0308 637.5516 282.9763 C635.2533 283.9218 632.6235 282.8251 631.678 280.5267 C630.7325 278.2283 631.8293 275.5986 634.1277 274.6531 C636.426 273.7076 639.0558 274.8043 640.0013 277.1027 Z" stroke="none" clip-path="url(#clipPath2)"/>
    </g>
    <g stroke-linecap="butt" transform="matrix(1,0,0,1,-190,-222)" fill="rgb(255,102,0)" text-rendering="geometricPrecision" shape-rendering="geometricPrecision" stroke="rgb(255,102,0)" stroke-miterlimit="1.45">
      <path fill="none" d="M640.0013 277.1027 C640.9468 279.4011 639.85 282.0308 637.5516 282.9763 C635.2533 283.9218 632.6235 282.8251 631.678 280.5267 C630.7325 278.2283 631.8293 275.5986 634.1277 274.6531 C636.426 273.7076 639.0558 274.8043 640.0013 277.1027 Z" clip-path="url(#clipPath2)"/>
      <path fill="white" d="M586.889 453.2529 L568.889 446.5029 L568.889 460.0029 Z" stroke-width="2" clip-path="url(#clipPath2)" stroke="none"/>
      <path fill="none" d="M586.889 453.2529 L568.889 446.5029 L568.889 460.0029 Z" clip-path="url(#clipPath2)"/>
      <rect x="608.6652" y="287.1709" clip-path="url(#clipPath2)" fill="white" width="4" height="4" stroke="none" stroke-width="2"/>
    </g>
    <g fill="rgb(229,229,229)" text-rendering="geometricPrecision" shape-rendering="geometricPrecision" transform="matrix(1,0,0,1,-190,-222)" stroke="rgb(229,229,229)">
      <rect x="921.62" y="406.3765" clip-path="url(#clipPath2)" width="198.76" rx="4" ry="4" height="71.3765" stroke="none"/>
      <rect x="921.62" y="406.3765" clip-path="url(#clipPath2)" fill="rgb(235,235,235)" width="170.5527" height="22.3765" stroke="none"/>
    </g>
    <g font-size="15px" stroke-linecap="butt" transform="matrix(1,0,0,1,-190,-222)" text-rendering="geometricPrecision" font-family="sans-serif" shape-rendering="geometricPrecision" stroke-miterlimit="1.45">
      <text x="923.62" xml:space="preserve" y="423.457" clip-path="url(#clipPath2)" stroke="none">TreeItem: { type: "folder" </text>
      <rect x="936.62" y="443.7529" clip-path="url(#clipPath2)" fill="none" width="168.76" rx="4" ry="4" height="19"/>
      <text x="987.0537" xml:space="preserve" font-size="12px" y="457.9668" clip-path="url(#clipPath2)" stroke="none">Label: "Asia"</text>
    </g>
    <g stroke-linecap="butt" transform="matrix(1,0,0,1,-190,-222)" fill="rgb(255,102,0)" text-rendering="geometricPrecision" shape-rendering="geometricPrecision" stroke="rgb(255,102,0)" stroke-width="2" stroke-miterlimit="1.45">
      <path fill="none" d="M810.1166 453.2529 L919.7542 453.2529" clip-path="url(#clipPath2)"/>
    </g>
    <g stroke-linecap="butt" transform="matrix(1,0,0,1,-190,-222)" fill-opacity="0" fill="rgb(0,0,0)" text-rendering="geometricPrecision" shape-rendering="geometricPrecision" stroke="rgb(0,0,0)" stroke-width="2" stroke-opacity="0" stroke-miterlimit="1.45">
      <path d="M801.1166 453.2529 C801.1166 450.7676 803.1313 448.7529 805.6166 448.7529 C808.1019 448.7529 810.1166 450.7676 810.1166 453.2529 C810.1166 455.7382 808.1019 457.7529 805.6166 457.7529 C803.1313 457.7529 801.1166 455.7382 801.1166 453.2529 Z" stroke="none" clip-path="url(#clipPath2)"/>
    </g>
    <g stroke-linecap="butt" transform="matrix(1,0,0,1,-190,-222)" fill="rgb(255,102,0)" text-rendering="geometricPrecision" shape-rendering="geometricPrecision" stroke="rgb(255,102,0)" stroke-miterlimit="1.45">
      <path fill="none" d="M801.1166 453.2529 C801.1166 450.7676 803.1313 448.7529 805.6166 448.7529 C808.1019 448.7529 810.1166 450.7676 810.1166 453.2529 C810.1166 455.7382 808.1019 457.7529 805.6166 457.7529 C803.1313 457.7529 801.1166 455.7382 801.1166 453.2529 Z" clip-path="url(#clipPath2)"/>
      <path fill="white" d="M936.6292 453.2529 L918.6292 446.5029 L918.6292 460.0029 Z" stroke-width="2" clip-path="url(#clipPath2)" stroke="none"/>
      <path fill="none" d="M936.6292 453.2529 L918.6292 446.5029 L918.6292 460.0029 Z" clip-path="url(#clipPath2)"/>
      <rect x="815.745" y="451.2529" clip-path="url(#clipPath2)" fill="white" width="4" height="4" stroke="none" stroke-width="2"/>
    </g>
    <g fill="rgb(229,229,229)" text-rendering="geometricPrecision" shape-rendering="geometricPrecision" transform="matrix(1,0,0,1,-190,-222)" stroke="rgb(229,229,229)">
      <rect x="921.62" y="320" clip-path="url(#clipPath2)" width="198.76" rx="4" ry="4" height="71.3765" stroke="none"/>
      <rect x="921.62" y="320" clip-path="url(#clipPath2)" fill="rgb(235,235,235)" width="64.0146" height="22.3765" stroke="none"/>
    </g>
    <g font-size="15px" stroke-linecap="butt" transform="matrix(1,0,0,1,-190,-222)" text-rendering="geometricPrecision" font-family="sans-serif" shape-rendering="geometricPrecision" stroke-miterlimit="1.45">
      <text x="923.62" xml:space="preserve" y="337.0806" clip-path="url(#clipPath2)" stroke="none">TreeItem</text>
      <rect x="936.62" y="357.3765" clip-path="url(#clipPath2)" fill="none" width="168.76" rx="4" ry="4" height="19"/>
      <text x="972.0479" xml:space="preserve" font-size="12px" y="371.5903" clip-path="url(#clipPath2)" stroke="none">Label: "Antarctica"</text>
    </g>
    <g fill="rgb(255,204,0)" text-rendering="geometricPrecision" shape-rendering="geometricPrecision" transform="matrix(1,0,0,1,-190,-222)" stroke="rgb(255,204,0)">
      <rect x="253.86" width="174" height="30" y="248.8118" clip-path="url(#clipPath2)" stroke="none"/>
    </g>
    <g text-rendering="geometricPrecision" stroke-miterlimit="1.45" shape-rendering="geometricPrecision" transform="matrix(1,0,0,1,-190,-222)" stroke-linecap="butt">
      <rect fill="none" x="253.86" width="174" height="30" y="248.8118" clip-path="url(#clipPath2)"/>
      <text x="308.2467" xml:space="preserve" y="268.5256" clip-path="url(#clipPath2)" font-family="sans-serif" stroke="none">Node: "App"</text>
      <rect x="586.86" y="524.6294" clip-path="url(#clipPath2)" fill="none" width="218.76" rx="4" ry="4" height="30"/>
      <text x="656.8884" xml:space="preserve" y="544.3433" clip-path="url(#clipPath2)" font-family="sans-serif" stroke="none">PropertyGroup</text>
      <rect x="586.86" y="351.8765" clip-path="url(#clipPath2)" fill="none" width="218.76" rx="4" ry="4" height="30"/>
      <text x="673.5642" xml:space="preserve" y="371.5903" clip-path="url(#clipPath2)" font-family="sans-serif" stroke="none">Property</text>
    </g>
    <g stroke-linecap="butt" transform="matrix(1,0,0,1,-190,-222)" fill="rgb(255,102,0)" text-rendering="geometricPrecision" shape-rendering="geometricPrecision" stroke="rgb(255,102,0)" stroke-width="2" stroke-miterlimit="1.45">
      <path fill="none" d="M432.36 263.8118 L527.5703 263.8118" clip-path="url(#clipPath2)"/>
    </g>
    <g stroke-linecap="butt" transform="matrix(1,0,0,1,-190,-222)" fill-opacity="0" fill="rgb(0,0,0)" text-rendering="geometricPrecision" shape-rendering="geometricPrecision" stroke="rgb(0,0,0)" stroke-width="2" stroke-opacity="0" stroke-miterlimit="1.45">
      <path d="M423.36 263.8118 C423.36 261.3265 425.3747 259.3118 427.86 259.3118 C430.3453 259.3118 432.36 261.3265 432.36 263.8118 C432.36 266.2971 430.3453 268.3118 427.86 268.3118 C425.3747 268.3118 423.36 266.2971 423.36 263.8118 Z" stroke="none" clip-path="url(#clipPath2)"/>
    </g>
    <g stroke-linecap="butt" transform="matrix(1,0,0,1,-190,-222)" fill="rgb(255,102,0)" text-rendering="geometricPrecision" shape-rendering="geometricPrecision" stroke="rgb(255,102,0)" stroke-miterlimit="1.45">
      <path fill="none" d="M423.36 263.8118 C423.36 261.3265 425.3747 259.3118 427.86 259.3118 C430.3453 259.3118 432.36 261.3265 432.36 263.8118 C432.36 266.2971 430.3453 268.3118 427.86 268.3118 C425.3747 268.3118 423.36 266.2971 423.36 263.8118 Z" clip-path="url(#clipPath2)"/>
      <path fill="white" d="M544.4453 263.8118 L526.4453 257.0618 L526.4453 270.5618 Z" stroke-width="2" clip-path="url(#clipPath2)" stroke="none"/>
      <path fill="none" d="M544.4453 263.8118 L526.4453 257.0618 L526.4453 270.5618 Z" clip-path="url(#clipPath2)"/>
      <rect x="437.985" y="261.8118" clip-path="url(#clipPath2)" fill="white" width="4" height="4" stroke="none" stroke-width="2"/>
    </g>
    <g stroke-linecap="butt" transform="matrix(1,0,0,1,-190,-222)" fill="rgb(255,102,0)" text-rendering="geometricPrecision" shape-rendering="geometricPrecision" stroke="rgb(255,102,0)" stroke-width="2" stroke-miterlimit="1.45">
      <path fill="none" d="M631.678 280.5267 L535.248 320.1956 L531.202 322.485 L528.312 325.5489 L526.578 329.3872 L526 334 L526 529.6294 L526.625 534.0044 L528.5 537.1294 L531.625 539.0044 L536 539.6294 L569.9819 539.6294" clip-path="url(#clipPath2)"/>
    </g>
    <g stroke-linecap="butt" transform="matrix(1,0,0,1,-190,-222)" fill-opacity="0" fill="rgb(0,0,0)" text-rendering="geometricPrecision" shape-rendering="geometricPrecision" stroke="rgb(0,0,0)" stroke-width="2" stroke-opacity="0" stroke-miterlimit="1.45">
      <path d="M640.0013 277.1027 C640.9468 279.4011 639.85 282.0308 637.5516 282.9763 C635.2533 283.9218 632.6235 282.8251 631.678 280.5267 C630.7325 278.2283 631.8293 275.5986 634.1277 274.6531 C636.426 273.7076 639.0558 274.8043 640.0013 277.1027 Z" stroke="none" clip-path="url(#clipPath2)"/>
    </g>
    <g stroke-linecap="butt" transform="matrix(1,0,0,1,-190,-222)" fill="rgb(255,102,0)" text-rendering="geometricPrecision" shape-rendering="geometricPrecision" stroke="rgb(255,102,0)" stroke-miterlimit="1.45">
      <path fill="none" d="M640.0013 277.1027 C640.9468 279.4011 639.85 282.0308 637.5516 282.9763 C635.2533 283.9218 632.6235 282.8251 631.678 280.5267 C630.7325 278.2283 631.8293 275.5986 634.1277 274.6531 C636.426 273.7076 639.0558 274.8043 640.0013 277.1027 Z" clip-path="url(#clipPath2)"/>
      <path fill="white" d="M586.8569 539.6294 L568.8569 532.8794 L568.8569 546.3794 Z" stroke-width="2" clip-path="url(#clipPath2)" stroke="none"/>
      <path fill="none" d="M586.8569 539.6294 L568.8569 532.8794 L568.8569 546.3794 Z" clip-path="url(#clipPath2)"/>
      <rect x="608.6652" y="287.1709" clip-path="url(#clipPath2)" fill="white" width="4" height="4" stroke="none" stroke-width="2"/>
    </g>
    <g stroke-linecap="butt" transform="matrix(1,0,0,1,-190,-222)" fill="rgb(255,102,0)" text-rendering="geometricPrecision" shape-rendering="geometricPrecision" stroke="rgb(255,102,0)" stroke-width="2" stroke-miterlimit="1.45">
      <path fill="none" d="M810.1166 539.6294 L919.7542 539.6294" clip-path="url(#clipPath2)"/>
    </g>
    <g stroke-linecap="butt" transform="matrix(1,0,0,1,-190,-222)" fill-opacity="0" fill="rgb(0,0,0)" text-rendering="geometricPrecision" shape-rendering="geometricPrecision" stroke="rgb(0,0,0)" stroke-width="2" stroke-opacity="0" stroke-miterlimit="1.45">
      <path d="M801.1166 539.6294 C801.1166 537.1441 803.1313 535.1294 805.6166 535.1294 C808.1019 535.1294 810.1166 537.1441 810.1166 539.6294 C810.1166 542.1147 808.1019 544.1294 805.6166 544.1294 C803.1313 544.1294 801.1166 542.1147 801.1166 539.6294 Z" stroke="none" clip-path="url(#clipPath2)"/>
    </g>
    <g stroke-linecap="butt" transform="matrix(1,0,0,1,-190,-222)" fill="rgb(255,102,0)" text-rendering="geometricPrecision" shape-rendering="geometricPrecision" stroke="rgb(255,102,0)" stroke-miterlimit="1.45">
      <path fill="none" d="M801.1166 539.6294 C801.1166 537.1441 803.1313 535.1294 805.6166 535.1294 C808.1019 535.1294 810.1166 537.1441 810.1166 539.6294 C810.1166 542.1147 808.1019 544.1294 805.6166 544.1294 C803.1313 544.1294 801.1166 542.1147 801.1166 539.6294 Z" clip-path="url(#clipPath2)"/>
      <path fill="white" d="M936.6292 539.6294 L918.6292 532.8794 L918.6292 546.3794 Z" stroke-width="2" clip-path="url(#clipPath2)" stroke="none"/>
      <path fill="none" d="M936.6292 539.6294 L918.6292 532.8794 L918.6292 546.3794 Z" clip-path="url(#clipPath2)"/>
      <rect x="815.745" y="537.6294" clip-path="url(#clipPath2)" fill="white" width="4" height="4" stroke="none" stroke-width="2"/>
    </g>
    <g stroke-linecap="butt" transform="matrix(1,0,0,1,-190,-222)" fill="rgb(255,102,0)" text-rendering="geometricPrecision" shape-rendering="geometricPrecision" stroke="rgb(255,102,0)" stroke-width="2" stroke-miterlimit="1.45">
      <path fill="none" d="M631.678 280.5267 L535.248 320.1956 L531.202 322.485 L528.312 325.5489 L526.578 329.3872 L526 334 L526 356.8765 L526.625 361.2515 L528.5 364.3765 L531.625 366.2515 L536 366.8765 L570.014 366.8765" clip-path="url(#clipPath2)"/>
    </g>
    <g stroke-linecap="butt" transform="matrix(1,0,0,1,-190,-222)" fill-opacity="0" fill="rgb(0,0,0)" text-rendering="geometricPrecision" shape-rendering="geometricPrecision" stroke="rgb(0,0,0)" stroke-width="2" stroke-opacity="0" stroke-miterlimit="1.45">
      <path d="M640.0013 277.1027 C640.9468 279.4011 639.85 282.0308 637.5516 282.9763 C635.2533 283.9218 632.6235 282.8251 631.678 280.5267 C630.7325 278.2283 631.8293 275.5986 634.1277 274.6531 C636.426 273.7076 639.0558 274.8043 640.0013 277.1027 Z" stroke="none" clip-path="url(#clipPath2)"/>
    </g>
    <g stroke-linecap="butt" transform="matrix(1,0,0,1,-190,-222)" fill="rgb(255,102,0)" text-rendering="geometricPrecision" shape-rendering="geometricPrecision" stroke="rgb(255,102,0)" stroke-miterlimit="1.45">
      <path fill="none" d="M640.0013 277.1027 C640.9468 279.4011 639.85 282.0308 637.5516 282.9763 C635.2533 283.9218 632.6235 282.8251 631.678 280.5267 C630.7325 278.2283 631.8293 275.5986 634.1277 274.6531 C636.426 273.7076 639.0558 274.8043 640.0013 277.1027 Z" clip-path="url(#clipPath2)"/>
      <path fill="white" d="M586.889 366.8765 L568.889 360.1265 L568.889 373.6265 Z" stroke-width="2" clip-path="url(#clipPath2)" stroke="none"/>
      <path fill="none" d="M586.889 366.8765 L568.889 360.1265 L568.889 373.6265 Z" clip-path="url(#clipPath2)"/>
      <rect x="555.4927" y="296.6178" clip-path="url(#clipPath2)" fill="white" width="28.6797" height="18.7012" stroke="none" stroke-width="2"/>
      <text x="557.4927" y="310.6823" clip-path="url(#clipPath2)" fill="black" font-family="sans-serif" stroke="none" xml:space="preserve">child</text>
    </g>
    <g stroke-linecap="butt" transform="matrix(1,0,0,1,-190,-222)" fill="rgb(255,102,0)" text-rendering="geometricPrecision" shape-rendering="geometricPrecision" stroke="rgb(255,102,0)" stroke-width="2" stroke-miterlimit="1.45">
      <path fill="none" d="M810.1166 366.8765 L919.7542 366.8765" clip-path="url(#clipPath2)"/>
    </g>
    <g stroke-linecap="butt" transform="matrix(1,0,0,1,-190,-222)" fill-opacity="0" fill="rgb(0,0,0)" text-rendering="geometricPrecision" shape-rendering="geometricPrecision" stroke="rgb(0,0,0)" stroke-width="2" stroke-opacity="0" stroke-miterlimit="1.45">
      <path d="M801.1166 366.8765 C801.1166 364.3912 803.1313 362.3765 805.6166 362.3765 C808.1019 362.3765 810.1166 364.3912 810.1166 366.8765 C810.1166 369.3618 808.1019 371.3765 805.6166 371.3765 C803.1313 371.3765 801.1166 369.3618 801.1166 366.8765 Z" stroke="none" clip-path="url(#clipPath2)"/>
    </g>
    <g stroke-linecap="butt" transform="matrix(1,0,0,1,-190,-222)" fill="rgb(255,102,0)" text-rendering="geometricPrecision" shape-rendering="geometricPrecision" stroke="rgb(255,102,0)" stroke-miterlimit="1.45">
      <path fill="none" d="M801.1166 366.8765 C801.1166 364.3912 803.1313 362.3765 805.6166 362.3765 C808.1019 362.3765 810.1166 364.3912 810.1166 366.8765 C810.1166 369.3618 808.1019 371.3765 805.6166 371.3765 C803.1313 371.3765 801.1166 369.3618 801.1166 366.8765 Z" clip-path="url(#clipPath2)"/>
      <path fill="white" d="M936.6292 366.8765 L918.6292 360.1265 L918.6292 373.6265 Z" stroke-width="2" clip-path="url(#clipPath2)" stroke="none"/>
      <path fill="none" d="M936.6292 366.8765 L918.6292 360.1265 L918.6292 373.6265 Z" clip-path="url(#clipPath2)"/>
      <rect x="815.745" y="364.8765" clip-path="url(#clipPath2)" fill="white" width="4" height="4" stroke="none" stroke-width="2"/>
    </g>
    <g fill="rgb(229,229,229)" text-rendering="geometricPrecision" shape-rendering="geometricPrecision" transform="matrix(1,0,0,1,-190,-222)" stroke="rgb(229,229,229)">
      <rect x="864.62" y="237.6235" clip-path="url(#clipPath2)" width="255.76" rx="4" ry="4" height="52.3765" stroke="none"/>
      <rect x="864.62" y="237.6235" clip-path="url(#clipPath2)" fill="rgb(235,235,235)" width="67.3545" height="22.3765" stroke="none"/>
    </g>
    <g font-size="15px" stroke-linecap="butt" transform="matrix(1,0,0,1,-190,-222)" text-rendering="geometricPrecision" font-family="sans-serif" shape-rendering="geometricPrecision" stroke-miterlimit="1.45">
      <text x="866.62" xml:space="preserve" y="254.7041" clip-path="url(#clipPath2)" stroke="none">TreeView</text>
    </g>
    <g fill="rgb(255,204,0)" text-rendering="geometricPrecision" shape-rendering="geometricPrecision" transform="matrix(1,0,0,1,-190,-222)" stroke="rgb(255,204,0)">
      <rect x="274.86" width="153" height="30" y="351.8765" clip-path="url(#clipPath2)" stroke="none"/>
    </g>
    <g text-rendering="geometricPrecision" stroke-miterlimit="1.45" shape-rendering="geometricPrecision" transform="matrix(1,0,0,1,-190,-222)" stroke-linecap="butt">
      <rect fill="none" x="274.86" width="153" height="30" y="351.8765" clip-path="url(#clipPath2)"/>
      <text x="302.7448" xml:space="preserve" y="371.5903" clip-path="url(#clipPath2)" font-family="sans-serif" stroke="none">Node: "Antarctica"</text>
    </g>
    <g fill="rgb(255,204,0)" text-rendering="geometricPrecision" shape-rendering="geometricPrecision" transform="matrix(1,0,0,1,-190,-222)" stroke="rgb(255,204,0)">
      <rect x="274.86" width="153" height="30" y="438.2529" clip-path="url(#clipPath2)" stroke="none"/>
    </g>
    <g text-rendering="geometricPrecision" stroke-miterlimit="1.45" shape-rendering="geometricPrecision" transform="matrix(1,0,0,1,-190,-222)" stroke-linecap="butt">
      <rect fill="none" x="274.86" width="153" height="30" y="438.2529" clip-path="url(#clipPath2)"/>
      <text x="317.7506" xml:space="preserve" y="457.9668" clip-path="url(#clipPath2)" font-family="sans-serif" stroke="none">Node: "Asia"</text>
    </g>
    <g fill="rgb(255,204,0)" text-rendering="geometricPrecision" shape-rendering="geometricPrecision" transform="matrix(1,0,0,1,-190,-222)" stroke="rgb(255,204,0)">
      <rect x="274.86" width="153" height="30" y="524.6294" clip-path="url(#clipPath2)" stroke="none"/>
    </g>
    <g text-rendering="geometricPrecision" stroke-miterlimit="1.45" shape-rendering="geometricPrecision" transform="matrix(1,0,0,1,-190,-222)" stroke-linecap="butt">
      <rect fill="none" x="274.86" width="153" height="30" y="524.6294" clip-path="url(#clipPath2)"/>
      <text x="310.0748" xml:space="preserve" y="544.3433" clip-path="url(#clipPath2)" font-family="sans-serif" stroke="none">Node: "Europe"</text>
    </g>
    <g stroke-linecap="butt" transform="matrix(1,0,0,1,-190,-222)" fill="rgb(255,102,0)" text-rendering="geometricPrecision" shape-rendering="geometricPrecision" stroke="rgb(255,102,0)" stroke-width="2" stroke-miterlimit="1.45">
      <path fill="none" d="M804.6593 263.8118 L847.7579 263.8118" clip-path="url(#clipPath2)"/>
    </g>
    <g stroke-linecap="butt" transform="matrix(1,0,0,1,-190,-222)" fill-opacity="0" fill="rgb(0,0,0)" text-rendering="geometricPrecision" shape-rendering="geometricPrecision" stroke="rgb(0,0,0)" stroke-width="2" stroke-opacity="0" stroke-miterlimit="1.45">
      <path d="M795.6593 263.8118 C795.6593 261.3265 797.674 259.3118 800.1593 259.3118 C802.6446 259.3118 804.6593 261.3265 804.6593 263.8118 C804.6593 266.2971 802.6446 268.3118 800.1593 268.3118 C797.674 268.3118 795.6593 266.2971 795.6593 263.8118 Z" stroke="none" clip-path="url(#clipPath2)"/>
    </g>
    <g stroke-linecap="butt" transform="matrix(1,0,0,1,-190,-222)" fill="rgb(255,102,0)" text-rendering="geometricPrecision" shape-rendering="geometricPrecision" stroke="rgb(255,102,0)" stroke-miterlimit="1.45">
      <path fill="none" d="M795.6593 263.8118 C795.6593 261.3265 797.674 259.3118 800.1593 259.3118 C802.6446 259.3118 804.6593 261.3265 804.6593 263.8118 C804.6593 266.2971 802.6446 268.3118 800.1593 268.3118 C797.674 268.3118 795.6593 266.2971 795.6593 263.8118 Z" clip-path="url(#clipPath2)"/>
      <path fill="white" d="M864.6329 263.8118 L846.6329 257.0618 L846.6329 270.5618 Z" stroke-width="2" clip-path="url(#clipPath2)" stroke="none"/>
      <path fill="none" d="M864.6329 263.8118 L846.6329 257.0618 L846.6329 270.5618 Z" clip-path="url(#clipPath2)"/>
      <rect x="810.315" y="261.8118" clip-path="url(#clipPath2)" fill="white" width="4" height="4" stroke="none" stroke-width="2"/>
    </g>
    <g stroke-linecap="butt" transform="matrix(1,0,0,1,-190,-222)" fill="rgb(255,102,0)" text-rendering="geometricPrecision" shape-rendering="geometricPrecision" stroke="rgb(255,102,0)" stroke-width="2" stroke-miterlimit="1.45">
      <path fill="none" d="M249.3616 266.2203 L229.7365 266.7369 L225.3631 267.477 L222.2391 269.4342 L220.3648 272.6086 L219.74 277 L219.74 356.8765 L220.365 361.2515 L222.24 364.3765 L225.365 366.2515 L229.74 366.8765 L257.985 366.8765" clip-path="url(#clipPath2)"/>
    </g>
    <g stroke-linecap="butt" transform="matrix(1,0,0,1,-190,-222)" fill-opacity="0" fill="rgb(0,0,0)" text-rendering="geometricPrecision" shape-rendering="geometricPrecision" stroke="rgb(0,0,0)" stroke-width="2" stroke-opacity="0" stroke-miterlimit="1.45">
      <path d="M258.3584 265.9835 C258.4238 268.4679 256.4628 270.5349 253.9784 270.6003 C251.494 270.6657 249.427 268.7047 249.3616 266.2203 C249.2962 263.7358 251.2572 261.6688 253.7416 261.6034 C256.226 261.538 258.2931 263.499 258.3584 265.9835 Z" stroke="none" clip-path="url(#clipPath2)"/>
    </g>
    <g stroke-linecap="butt" transform="matrix(1,0,0,1,-190,-222)" fill="rgb(255,102,0)" text-rendering="geometricPrecision" shape-rendering="geometricPrecision" stroke="rgb(255,102,0)" stroke-miterlimit="1.45">
      <path fill="none" d="M258.3584 265.9835 C258.4238 268.4679 256.4628 270.5349 253.9784 270.6003 C251.494 270.6657 249.427 268.7047 249.3616 266.2203 C249.2962 263.7358 251.2572 261.6688 253.7416 261.6034 C256.226 261.538 258.2931 263.499 258.3584 265.9835 Z" clip-path="url(#clipPath2)"/>
      <path fill="white" d="M274.86 366.8765 L256.86 360.1265 L256.86 373.6265 Z" stroke-width="2" clip-path="url(#clipPath2)" stroke="none"/>
      <path fill="none" d="M274.86 366.8765 L256.86 360.1265 L256.86 373.6265 Z" clip-path="url(#clipPath2)"/>
      <rect x="230.2375" y="264.671" clip-path="url(#clipPath2)" fill="white" width="4" height="4" stroke="none" stroke-width="2"/>
    </g>
    <g text-rendering="geometricPrecision" stroke-miterlimit="1.45" shape-rendering="geometricPrecision" transform="matrix(1,0,0,1,-190,-222)" stroke-linecap="butt">
      <path fill="none" d="M351.36 381.8765 L351.36 391.4382 L351.985 395.6215 L353.86 398.6096 L356.985 400.4024 L361.36 401 L686.24 401 L693.74 399.6132 L695.615 397.8797 L696.24 395.4528 L696.24 389.9055" clip-path="url(#clipPath2)"/>
      <path d="M696.24 381.9055 L691.24 393.9055 L696.24 390.9055 L701.24 393.9055 Z" clip-path="url(#clipPath2)" stroke="none"/>
      <rect x="432.9335" y="391.6494" clip-path="url(#clipPath2)" fill="white" width="89.3887" height="18.7012" stroke="none"/>
      <text x="434.9335" xml:space="preserve" y="405.7139" clip-path="url(#clipPath2)" font-family="sans-serif" stroke="none">get name, value</text>
    </g>
    <g stroke-linecap="butt" transform="matrix(1,0,0,1,-190,-222)" fill="rgb(255,102,0)" text-rendering="geometricPrecision" shape-rendering="geometricPrecision" stroke="rgb(255,102,0)" stroke-width="2" stroke-miterlimit="1.45">
      <path fill="none" d="M249.3616 266.2203 L229.7365 266.7369 L225.3631 267.477 L222.2391 269.4342 L220.3648 272.6086 L219.74 277 L219.74 443.2529 L220.365 447.6279 L222.24 450.7529 L225.365 452.6279 L229.74 453.2529 L257.985 453.2529" clip-path="url(#clipPath2)"/>
    </g>
    <g stroke-linecap="butt" transform="matrix(1,0,0,1,-190,-222)" fill-opacity="0" fill="rgb(0,0,0)" text-rendering="geometricPrecision" shape-rendering="geometricPrecision" stroke="rgb(0,0,0)" stroke-width="2" stroke-opacity="0" stroke-miterlimit="1.45">
      <path d="M258.3584 265.9835 C258.4238 268.4679 256.4628 270.5349 253.9784 270.6003 C251.494 270.6657 249.427 268.7047 249.3616 266.2203 C249.2962 263.7358 251.2572 261.6688 253.7416 261.6034 C256.226 261.538 258.2931 263.499 258.3584 265.9835 Z" stroke="none" clip-path="url(#clipPath2)"/>
    </g>
    <g stroke-linecap="butt" transform="matrix(1,0,0,1,-190,-222)" fill="rgb(255,102,0)" text-rendering="geometricPrecision" shape-rendering="geometricPrecision" stroke="rgb(255,102,0)" stroke-miterlimit="1.45">
      <path fill="none" d="M258.3584 265.9835 C258.4238 268.4679 256.4628 270.5349 253.9784 270.6003 C251.494 270.6657 249.427 268.7047 249.3616 266.2203 C249.2962 263.7358 251.2572 261.6688 253.7416 261.6034 C256.226 261.538 258.2931 263.499 258.3584 265.9835 Z" clip-path="url(#clipPath2)"/>
      <path fill="white" d="M274.86 453.2529 L256.86 446.5029 L256.86 460.0029 Z" stroke-width="2" clip-path="url(#clipPath2)" stroke="none"/>
      <path fill="none" d="M274.86 453.2529 L256.86 446.5029 L256.86 460.0029 Z" clip-path="url(#clipPath2)"/>
      <rect x="230.2375" y="264.671" clip-path="url(#clipPath2)" fill="white" width="4" height="4" stroke="none" stroke-width="2"/>
    </g>
    <g text-rendering="geometricPrecision" stroke-miterlimit="1.45" shape-rendering="geometricPrecision" transform="matrix(1,0,0,1,-190,-222)" stroke-linecap="butt">
      <path fill="none" d="M351.36 468.2529 L351.36 484 L351.985 488.375 L353.86 491.5 L356.985 493.375 L361.36 494 L686.24 494 L690.615 493.4455 L693.74 491.7818 L695.615 489.0091 L696.24 485.1273 L696.24 476.2545" clip-path="url(#clipPath2)"/>
      <path d="M696.24 468.2545 L691.24 480.2545 L696.24 477.2545 L701.24 480.2545 Z" clip-path="url(#clipPath2)" stroke="none"/>
      <rect x="431.9288" y="484.6494" clip-path="url(#clipPath2)" fill="white" width="89.3887" height="18.7012" stroke="none"/>
      <text x="433.9288" xml:space="preserve" y="498.7139" clip-path="url(#clipPath2)" font-family="sans-serif" stroke="none">get name, value</text>
    </g>
    <g stroke-linecap="butt" transform="matrix(1,0,0,1,-190,-222)" fill="rgb(255,102,0)" text-rendering="geometricPrecision" shape-rendering="geometricPrecision" stroke="rgb(255,102,0)" stroke-width="2" stroke-miterlimit="1.45">
      <path fill="none" d="M249.3616 266.2203 L229.7365 266.7369 L225.3631 267.477 L222.2391 269.4342 L220.3648 272.6086 L219.74 277 L219.74 529.6294 L220.365 534.0044 L222.24 537.1294 L225.365 539.0044 L229.74 539.6294 L257.985 539.6294" clip-path="url(#clipPath2)"/>
    </g>
    <g stroke-linecap="butt" transform="matrix(1,0,0,1,-190,-222)" fill-opacity="0" fill="rgb(0,0,0)" text-rendering="geometricPrecision" shape-rendering="geometricPrecision" stroke="rgb(0,0,0)" stroke-width="2" stroke-opacity="0" stroke-miterlimit="1.45">
      <path d="M258.3584 265.9835 C258.4238 268.4679 256.4628 270.5349 253.9784 270.6003 C251.494 270.6657 249.427 268.7047 249.3616 266.2203 C249.2962 263.7358 251.2572 261.6688 253.7416 261.6034 C256.226 261.538 258.2931 263.499 258.3584 265.9835 Z" stroke="none" clip-path="url(#clipPath2)"/>
    </g>
    <g stroke-linecap="butt" transform="matrix(1,0,0,1,-190,-222)" fill="rgb(255,102,0)" text-rendering="geometricPrecision" shape-rendering="geometricPrecision" stroke="rgb(255,102,0)" stroke-miterlimit="1.45">
      <path fill="none" d="M258.3584 265.9835 C258.4238 268.4679 256.4628 270.5349 253.9784 270.6003 C251.494 270.6657 249.427 268.7047 249.3616 266.2203 C249.2962 263.7358 251.2572 261.6688 253.7416 261.6034 C256.226 261.538 258.2931 263.499 258.3584 265.9835 Z" clip-path="url(#clipPath2)"/>
      <path fill="white" d="M274.86 539.6294 L256.86 532.8794 L256.86 546.3794 Z" stroke-width="2" clip-path="url(#clipPath2)" stroke="none"/>
      <path fill="none" d="M274.86 539.6294 L256.86 532.8794 L256.86 546.3794 Z" clip-path="url(#clipPath2)"/>
      <rect x="205.4002" y="303.9897" clip-path="url(#clipPath2)" fill="white" width="28.6797" height="18.7012" stroke="none" stroke-width="2"/>
      <text x="207.4002" y="318.0542" clip-path="url(#clipPath2)" fill="black" font-family="sans-serif" stroke="none" xml:space="preserve">child</text>
    </g>
    <g text-rendering="geometricPrecision" stroke-miterlimit="1.45" shape-rendering="geometricPrecision" transform="matrix(1,0,0,1,-190,-222)" stroke-linecap="butt">
      <path fill="none" d="M351.36 554.6294 L351.36 566 L351.985 570.375 L353.86 573.5 L356.985 575.375 L361.36 576 L686.24 576 L690.615 575.5829 L693.74 574.3317 L695.615 572.2463 L696.24 569.3268 L696.24 562.6536" clip-path="url(#clipPath2)"/>
      <path d="M696.24 554.6536 L691.24 566.6536 L696.24 563.6536 L701.24 566.6536 Z" clip-path="url(#clipPath2)" stroke="none"/>
      <rect x="431.9288" y="566.6494" clip-path="url(#clipPath2)" fill="white" width="89.3887" height="18.7012" stroke="none"/>
      <text x="433.9288" xml:space="preserve" y="580.7139" clip-path="url(#clipPath2)" font-family="sans-serif" stroke="none">get name, value</text>
    </g>
  </g>
</svg>
