<svg width="24" height="24" 
    viewBox="0 0 64 64" 
    xmlns="http://www.w3.org/2000/svg"
    focusable="false"
    >
    <style>
        .heavy {
            font: 36px sans-serif;
        }
    </style>
    <g class="icon" stroke-width="3" stroke="#ccc" fill="none">
        <path d="
            m 7 17
            v 35
            s 0 3, 3 3
            h 40
            s 3 0, 3 -3
            v -32
            s 0 -3, -3 -3
            h -21
            s -3 -7, -8 -7
            h -9
            s -5 0, -5 5
            v2
            h21
            " />
    </g>
    <g display="" stroke-width=".2" stroke="#68b" fill="none">
        <path d="
            m 7 17
            v 35
            s 0 3, 3 3
            h 40
            s 3 0, 3 -3
            v -32
            s 0 -3, -3 -3
            h -21
            s -3 -7, -8 -7
            h -9
            s -5 0, -5 5
            v2
            h22
            "/>
        <path d="m 7 10 h22" stroke="none"/>
    </g>
    <text class="icon heavy" x="20" y="50" fill="#ccc">+</text>
    <path name="dummy" d="M0 0 l10 -10 l-10 10 Z" stroke="none"/>
</svg>
