<svg xmlns="http://www.w3.org/2000/svg"
    width="24" height="24"
    viewBox="0 0 64 64"
    focusable="false"
>
<path display="none" transform="matrix(2 0 0 2 0 0)"
    d="
    M 5 4 
    A 1 1 0 0 0 4.3 5.7 
    L 10.6 12 
    L 4.3 18.3 
    A 1 1 0 1 0 5.7 19.7 
    L 12 13.4 
    L 18.3 19.7 
    A 1 1 0 1 0 19.7 18.3 
    L 13.4 12 
    L 19.7 5.7 
    A 1 1 0 0 0 19 4 
    A 1 1 0 0 0 18.3 4.3 
    L 12 10.6 
    L 5.7 4.3 A 1 1 0 0 0 5 4 
    z" />

<g class="icon" stroke-width="3" stroke="#ccc"
    stroke-linecap="round" _stroke-miterlimit="0.5"
>
<path
    d="
    M 16 16
    L 48 48
    " />
<path
    d="
    M 48 16
    L 16 48
    " />
</g>
</svg>