<?xml version="1.0" encoding="UTF-8"?>
<svg width="400px" height="400px" viewBox="120 60 100 100">
  <g stroke="#aaa">
    <g fill="rgb(229,229,229)" transform="matrix(1,0,0,1,-383,-314)" stroke="rgb(229,229,229)">
      <rect x="398.7733" y="329.2471" width="365.5734" rx="4" ry="4" height="306.1294"/>
    </g>
    <g fill="rgb(235,235,235)" transform="matrix(1,0,0,1,-383,-314)" stroke="rgb(235,235,235)">
      <rect x="398.7733" width="59.8545" height="22.3765" y="329.2471"/>
    </g>
    <g fill="#bbb" stroke="none" font-size="15px" stroke-linecap="butt" transform="matrix(1,0,0,1,-383,-314)" font-family="sans-serif" stroke-miterlimit="1.45">
      <text x="400.7733" y="346.3276">ListView</text>
    </g>
    <g fill="rgb(209,209,209)" transform="matrix(1,0,0,1,-383,-314)" stroke="rgb(209,209,209)">
      <rect x="413.7733" y="366.6235" width="335.5734" rx="4" ry="4" height="115.3765"/>
      <rect x="413.7733" y="366.6235" fill="rgb(235,235,235)" width="56.5146" height="22.3765"/>
    </g>
    <g fill="#bbb" stroke="none" font-size="15px" stroke-linecap="butt" transform="matrix(1,0,0,1,-383,-314)" font-family="sans-serif" stroke-miterlimit="1.45">
      <text x="415.7733" y="383.7041">ListItem</text>
    </g>
    <g fill="rgb(255,204,0)" transform="matrix(1,0,0,1,-383,-314)" stroke="rgb(255,204,0)">
      <circle r="15" cx="463.0297" cy="430.8894"/>
    </g>
    <g stroke-miterlimit="1.45" transform="matrix(1,0,0,1,-383,-314)" stroke-linecap="butt">
      <circle fill="none" r="15" cx="463.0297" cy="430.8894"/>
    </g>
    <g fill="rgb(209,209,209)" transform="matrix(1,0,0,1,-383,-314)" stroke="rgb(209,209,209)">
      <rect x="418.12" y="505" width="326.88" rx="4" ry="4" height="115.3765"/>
      <rect x="418.12" y="505" fill="rgb(235,235,235)" width="56.5146" height="22.3765"/>
    </g>
    <g fill="#bbb" stroke="none" font-size="15px" stroke-linecap="butt" transform="matrix(1,0,0,1,-383,-314)" font-family="sans-serif" stroke-miterlimit="1.45">
      <text x="420.12" y="522.0806">ListItem</text>
    </g>
  </g>
</svg>
